<mxfile host="app.diagrams.net" agent="Mozilla/5.0 (Macintosh; Intel Mac OS X 10_15_7) AppleWebKit/537.36 (KHTML, like Gecko) Chrome/135.0.0.0 Safari/537.36" version="24.7.7">
  <diagram name="Page-1" id="0RhbtU0nEBAmv8wr0rxq">
    <mxGraphModel dx="1835" dy="359" grid="1" gridSize="10" guides="1" tooltips="1" connect="1" arrows="1" fold="1" page="1" pageScale="1" pageWidth="850" pageHeight="1100" math="0" shadow="0">
      <root>
        <mxCell id="0" />
        <mxCell id="1" parent="0" />
        <mxCell id="lYWV6Mn_xeqbXDkd3jMC-19" style="edgeStyle=orthogonalEdgeStyle;rounded=0;orthogonalLoop=1;jettySize=auto;html=1;" edge="1" parent="1" source="lYWV6Mn_xeqbXDkd3jMC-16" target="lYWV6Mn_xeqbXDkd3jMC-17">
          <mxGeometry relative="1" as="geometry" />
        </mxCell>
        <mxCell id="lYWV6Mn_xeqbXDkd3jMC-27" value="English" style="edgeLabel;html=1;align=center;verticalAlign=middle;resizable=0;points=[];" vertex="1" connectable="0" parent="lYWV6Mn_xeqbXDkd3jMC-19">
          <mxGeometry x="0.2175" y="-1" relative="1" as="geometry">
            <mxPoint as="offset" />
          </mxGeometry>
        </mxCell>
        <mxCell id="lYWV6Mn_xeqbXDkd3jMC-16" value="UI&lt;div&gt;(React)&lt;/div&gt;" style="rounded=0;whiteSpace=wrap;html=1;" vertex="1" parent="1">
          <mxGeometry x="80" y="250" width="320" height="50" as="geometry" />
        </mxCell>
        <mxCell id="lYWV6Mn_xeqbXDkd3jMC-23" style="edgeStyle=orthogonalEdgeStyle;rounded=0;orthogonalLoop=1;jettySize=auto;html=1;" edge="1" parent="1">
          <mxGeometry relative="1" as="geometry">
            <mxPoint x="500" y="380" as="targetPoint" />
            <mxPoint x="300" y="380" as="sourcePoint" />
          </mxGeometry>
        </mxCell>
        <mxCell id="lYWV6Mn_xeqbXDkd3jMC-28" value="English" style="edgeLabel;html=1;align=center;verticalAlign=middle;resizable=0;points=[];" vertex="1" connectable="0" parent="lYWV6Mn_xeqbXDkd3jMC-23">
          <mxGeometry x="0.1714" y="1" relative="1" as="geometry">
            <mxPoint x="53" as="offset" />
          </mxGeometry>
        </mxCell>
        <mxCell id="lYWV6Mn_xeqbXDkd3jMC-17" value="Service&lt;div&gt;(FastAPI)&lt;/div&gt;" style="rounded=0;whiteSpace=wrap;html=1;" vertex="1" parent="1">
          <mxGeometry x="80" y="360" width="320" height="60" as="geometry" />
        </mxCell>
        <mxCell id="lYWV6Mn_xeqbXDkd3jMC-42" style="edgeStyle=orthogonalEdgeStyle;rounded=0;orthogonalLoop=1;jettySize=auto;html=1;" edge="1" parent="1">
          <mxGeometry relative="1" as="geometry">
            <mxPoint x="270" y="430" as="targetPoint" />
            <mxPoint x="300" y="550" as="sourcePoint" />
          </mxGeometry>
        </mxCell>
        <mxCell id="lYWV6Mn_xeqbXDkd3jMC-43" value="Results" style="edgeLabel;html=1;align=center;verticalAlign=middle;resizable=0;points=[];" vertex="1" connectable="0" parent="lYWV6Mn_xeqbXDkd3jMC-42">
          <mxGeometry x="-0.0131" relative="1" as="geometry">
            <mxPoint y="-46" as="offset" />
          </mxGeometry>
        </mxCell>
        <mxCell id="lYWV6Mn_xeqbXDkd3jMC-18" value="Stats Data&lt;div&gt;(Neo4J)&lt;/div&gt;" style="rounded=0;whiteSpace=wrap;html=1;direction=west;" vertex="1" parent="1">
          <mxGeometry x="280" y="520" width="120" height="60" as="geometry" />
        </mxCell>
        <mxCell id="lYWV6Mn_xeqbXDkd3jMC-21" value="User Data&lt;div&gt;(Cosmos)&lt;/div&gt;" style="rounded=0;whiteSpace=wrap;html=1;" vertex="1" parent="1">
          <mxGeometry x="-60" y="520" width="120" height="60" as="geometry" />
        </mxCell>
        <mxCell id="lYWV6Mn_xeqbXDkd3jMC-24" value="OpenAI" style="ellipse;shape=cloud;whiteSpace=wrap;html=1;" vertex="1" parent="1">
          <mxGeometry x="510" y="350" width="120" height="80" as="geometry" />
        </mxCell>
        <mxCell id="lYWV6Mn_xeqbXDkd3jMC-29" style="edgeStyle=orthogonalEdgeStyle;rounded=0;orthogonalLoop=1;jettySize=auto;html=1;entryX=0.977;entryY=0.49;entryDx=0;entryDy=0;entryPerimeter=0;" edge="1" parent="1" source="lYWV6Mn_xeqbXDkd3jMC-24" target="lYWV6Mn_xeqbXDkd3jMC-17">
          <mxGeometry relative="1" as="geometry" />
        </mxCell>
        <mxCell id="lYWV6Mn_xeqbXDkd3jMC-30" value="Cypher" style="edgeLabel;html=1;align=center;verticalAlign=middle;resizable=0;points=[];" vertex="1" connectable="0" parent="lYWV6Mn_xeqbXDkd3jMC-29">
          <mxGeometry x="0.2684" y="1" relative="1" as="geometry">
            <mxPoint x="-12" as="offset" />
          </mxGeometry>
        </mxCell>
        <mxCell id="lYWV6Mn_xeqbXDkd3jMC-44" value="" style="endArrow=classic;html=1;rounded=0;exitX=0.623;exitY=-0.033;exitDx=0;exitDy=0;exitPerimeter=0;" edge="1" parent="1">
          <mxGeometry width="50" height="50" relative="1" as="geometry">
            <mxPoint x="280.0000000000001" y="360" as="sourcePoint" />
            <mxPoint x="281" y="310" as="targetPoint" />
          </mxGeometry>
        </mxCell>
        <mxCell id="lYWV6Mn_xeqbXDkd3jMC-45" value="Formatted Results" style="edgeLabel;html=1;align=center;verticalAlign=middle;resizable=0;points=[];" vertex="1" connectable="0" parent="lYWV6Mn_xeqbXDkd3jMC-44">
          <mxGeometry x="-0.0404" relative="1" as="geometry">
            <mxPoint as="offset" />
          </mxGeometry>
        </mxCell>
      </root>
    </mxGraphModel>
  </diagram>
</mxfile>
